<svg width="20" height="18" viewBox="0 0 20 18" fill="none" xmlns="http://www.w3.org/2000/svg">
<path d="M18.3845 1.63239C17.3373 0.585117 15.9508 0.01272 14.4711 0.01272C12.9913 0.01272 11.6006 0.589357 10.5533 1.63663L10.0064 2.18359L9.45092 1.62815C8.40365 0.580877 7.0087 0 5.52895 0C4.05344 0 2.66273 0.576637 1.61969 1.61967C0.57242 2.66695 -0.00421676 4.05766 2.32169e-05 5.53741C2.32169e-05 7.01716 0.5809 8.40364 1.62817 9.45091L9.59084 17.4136C9.70108 17.5238 9.84948 17.5832 9.99364 17.5832C10.1378 17.5832 10.2862 17.5281 10.3964 17.4178L18.3761 9.46787C19.4233 8.4206 20 7.02988 20 5.55013C20.0042 4.07038 19.4318 2.67967 18.3845 1.63239ZM17.5705 8.65804L9.99364 16.2052L2.43377 8.64531C1.60273 7.81428 1.14482 6.71189 1.14482 5.53741C1.14482 4.36294 1.59849 3.26054 2.42953 2.43375C3.25632 1.60695 4.35872 1.14903 5.52895 1.14903C6.70342 1.14903 7.81005 1.60695 8.64109 2.43799L9.59932 3.39622C9.82404 3.62094 10.1844 3.62094 10.4092 3.39622L11.3589 2.44647C12.1899 1.61543 13.2966 1.15751 14.4668 1.15751C15.637 1.15751 16.7394 1.61543 17.5705 2.44223C18.4015 3.27326 18.8552 4.37566 18.8552 5.55013C18.8594 6.7246 18.4015 7.827 17.5705 8.65804Z" fill="#222222"/>
</svg>
